<?xml version="1.0" standalone="no"?>
<!DOCTYPE svg PUBLIC "-//W3C//DTD SVG 20010904//EN"
 "http://www.w3.org/TR/2001/REC-SVG-20010904/DTD/svg10.dtd">
<svg version="1.0" xmlns="http://www.w3.org/2000/svg"
 width="900.000000pt" height="900.000000pt" viewBox="0 0 900.000000 900.000000"
 preserveAspectRatio="xMidYMid meet">

<g transform="translate(0.000000,900.000000) scale(0.100000,-0.100000)"
fill="#000000" stroke="none">
<path d="M0 4500 l0 -4500 453 0 c447 1 452 1 417 19 -50 27 -87 67 -101 108
-25 77 18 269 73 324 36 36 84 45 129 26 19 -8 78 -55 132 -104 102 -94 181
-141 272 -162 73 -16 226 -31 335 -31 98 0 330 23 410 41 l45 11 42 -47 c22
-26 49 -64 59 -84 11 -20 25 -44 33 -53 15 -19 20 -16 -79 -37 -29 -6 353 -9
1056 -10 921 -1 1103 1 1107 13 3 8 39 18 102 26 l96 13 28 -27 28 -27 384 6
c211 3 438 5 504 5 66 0 875 -3 1798 -5 l1677 -5 0 4500 0 4500 -4500 0 -4500
0 0 -4500z m5131 4440 c211 -61 248 -62 519 -7 171 35 249 41 360 28 152 -18
225 -46 288 -110 63 -63 89 -104 123 -185 37 -92 146 -191 254 -231 28 -10 61
-25 75 -34 87 -53 189 -239 240 -436 41 -157 60 -194 118 -236 68 -48 82 -62
82 -76 0 -7 4 -13 8 -13 16 0 51 -76 71 -154 20 -76 20 -107 1 -76 -9 13 -10
13 -11 0 -1 -8 0 -25 1 -37 2 -33 -14 -29 -76 20 -60 46 -80 75 -174 246 -130
237 -490 768 -627 924 -37 43 -77 91 -88 106 -14 19 -29 27 -50 28 -16 1 -113
8 -215 17 -458 40 -567 46 -794 46 -406 0 -606 -14 -1171 -79 -93 -11 -307
-36 -475 -56 -168 -19 -359 -42 -425 -51 -249 -33 -1066 -29 -1295 7 -118 18
-294 61 -358 86 -53 21 -66 32 -81 64 l-19 39 31 26 c49 41 111 63 212 76 86
11 98 10 206 -15 63 -15 148 -29 189 -33 75 -6 94 -4 285 36 125 26 338 29
465 6 224 -42 227 -42 415 -6 542 103 594 107 770 54 119 -35 121 -36 265 -31
118 4 168 11 270 37 182 45 263 58 374 59 87 1 115 -4 237 -39z m-441 -895
c91 -8 209 -20 264 -27 l98 -11 53 -71 c92 -125 204 -324 234 -417 6 -20 23
-47 38 -60 l25 -24 -7 25 c-35 119 -121 290 -222 439 -35 51 -63 94 -61 96 4
3 212 -31 373 -61 209 -40 265 -76 590 -388 99 -95 223 -212 275 -260 116
-106 269 -273 314 -341 18 -27 39 -72 46 -100 21 -80 136 -396 159 -442 18
-34 22 -58 22 -135 -1 -113 -20 -188 -90 -361 -78 -194 -85 -230 -82 -447 7
-467 10 -425 -28 -525 -35 -93 -124 -278 -148 -306 -7 -9 -15 -41 -17 -73 -4
-53 -7 -60 -53 -103 -53 -50 -133 -92 -192 -100 -48 -7 -151 22 -151 42 0 8
11 31 25 51 42 62 28 58 -42 -13 -84 -84 -163 -144 -272 -208 -72 -41 -85 -46
-92 -32 -5 8 -23 18 -39 22 -67 15 -23 125 50 125 35 0 60 -23 60 -55 0 -32
16 -40 24 -12 15 58 -7 117 -56 143 -29 16 -90 17 -143 3 -37 -10 -155 -76
-155 -87 0 -2 13 -2 29 1 21 5 33 1 48 -16 46 -50 55 -107 28 -168 -30 -69
-71 -100 -210 -159 -489 -208 -580 -251 -809 -378 -102 -56 -126 -66 -166 -65
-105 2 -245 98 -520 358 -64 60 -392 334 -513 428 -99 78 -200 143 -287 187
-100 50 -242 102 -252 92 -9 -9 6 -18 90 -53 28 -12 52 -27 52 -33 0 -14 -86
-68 -158 -97 -44 -18 -55 -29 -71 -65 -49 -110 -192 -214 -295 -214 -23 0 -26
4 -26 32 0 31 66 158 82 158 15 0 8 -42 -12 -67 -25 -31 -21 -38 13 -22 27 12
32 24 43 106 8 65 32 88 99 98 62 8 108 36 140 83 31 45 34 80 4 39 -30 -40
-100 -77 -158 -84 -48 -5 -56 -11 -114 -73 -74 -80 -121 -167 -122 -224 0 -23
-4 -44 -10 -48 -17 -13 -51 -9 -73 10 -11 9 -27 22 -36 27 -13 9 -14 21 -5 90
5 43 15 86 22 93 6 8 48 42 92 75 175 133 171 142 -10 22 -63 -41 -120 -85
-126 -97 -17 -31 -25 -193 -10 -202 19 -12 12 -26 -13 -26 -14 0 -37 10 -51
23 l-27 23 15 122 c17 145 19 148 147 225 47 28 139 92 205 142 164 125 222
162 277 176 44 12 48 11 90 -16 24 -16 86 -63 138 -105 224 -179 494 -363 665
-452 176 -91 560 -259 695 -303 30 -10 79 -29 109 -42 29 -13 55 -22 58 -20 6
6 -83 57 -98 57 -49 0 134 87 367 174 66 24 136 51 156 60 21 9 41 16 46 16 5
0 7 -24 4 -53 -8 -102 66 -192 159 -192 33 0 54 6 66 18 17 18 17 19 -2 33
-54 40 -65 55 -65 88 0 38 14 53 58 62 26 5 36 1 62 -24 20 -21 30 -40 30 -61
0 -38 9 -38 66 -5 67 39 79 78 49 151 -19 46 -41 62 -84 63 l-34 0 27 -25 c28
-26 35 -69 12 -78 -41 -16 -133 40 -141 85 -6 32 7 43 120 103 149 78 217 129
314 235 94 101 149 142 208 155 42 8 52 25 16 25 -15 0 -63 -17 -106 -39 l-79
-38 5 36 c6 49 -21 171 -39 171 -16 0 -67 -74 -164 -240 -74 -125 -161 -251
-196 -282 -18 -16 -257 -138 -270 -138 -4 0 -45 -15 -93 -34 -47 -19 -124 -48
-170 -66 -47 -17 -124 -49 -172 -71 -106 -48 -111 -48 -97 -8 6 17 8 50 6 74
-12 106 -82 171 -215 200 -116 25 -165 51 -312 169 -73 59 -145 112 -158 117
-30 11 -88 -1 -185 -40 -104 -41 -239 -81 -274 -81 -21 0 -65 27 -155 93 -184
134 -317 236 -324 247 -3 6 -29 10 -57 10 -64 0 -130 -32 -241 -118 -114 -87
-253 -183 -312 -217 -67 -37 -113 -82 -120 -116 -4 -16 -10 -31 -15 -34 -8 -5
-59 60 -194 247 -146 203 -224 270 -317 272 -40 1 -48 4 -43 16 22 49 15 75
-34 131 -125 145 -147 286 -87 564 48 223 44 259 -46 396 -141 214 -186 362
-160 528 6 39 35 140 63 224 47 139 52 160 52 247 1 107 -26 207 -88 322 -63
117 -82 236 -55 344 15 60 38 69 234 94 88 11 187 25 220 30 85 14 118 13 109
-2 -4 -7 1 -5 12 4 13 11 65 24 154 37 74 11 221 34 325 51 408 66 817 113
1090 126 l149 7 -19 -25 c-11 -14 -48 -63 -82 -108 -35 -44 -63 -86 -63 -92 0
-15 3 -12 95 110 l80 107 65 6 c36 4 146 8 245 9 99 1 227 6 285 10 184 12
380 10 550 -5z m-2981 -3170 c43 -22 153 -145 254 -285 50 -69 113 -151 140
-184 53 -64 53 -65 25 -189 -9 -43 -8 -50 8 -62 17 -13 8 -14 -76 -15 -52 -1
-115 -5 -140 -11 -109 -23 -117 -23 -123 2 -6 22 -33 175 -87 484 -11 61 -31
141 -45 178 -14 37 -25 74 -25 82 0 19 33 19 69 0z m3975 -22 c18 -109 1 -158
-81 -244 -55 -58 -200 -165 -211 -155 -2 3 11 27 30 53 19 26 68 104 108 173
86 146 128 210 139 210 5 0 11 -17 15 -37z m-4084 -7 c0 -14 16 -55 36 -93 26
-51 40 -96 55 -181 10 -63 19 -126 19 -141 0 -15 7 -51 15 -81 15 -54 37 -154
48 -216 6 -29 3 -32 -44 -54 -27 -13 -57 -32 -66 -42 -16 -18 -16 -19 10 -9
14 6 44 19 66 31 58 29 60 25 15 -22 -84 -90 -84 -105 0 -29 102 92 69 85 446
92 416 7 440 12 687 133 92 45 205 100 250 120 l81 38 91 -68 c50 -37 88 -71
84 -75 -5 -5 -152 -81 -328 -170 -176 -89 -399 -205 -495 -259 -302 -167 -422
-209 -621 -217 -99 -4 -144 -2 -204 12 -58 13 -111 16 -209 14 -72 -2 -137 0
-144 4 -45 29 -75 164 -60 272 9 67 27 116 143 395 l48 115 3 158 c3 174 7
204 35 260 22 42 39 48 39 13z m2256 -238 c16 -12 76 -63 134 -113 123 -106
183 -138 300 -162 73 -14 90 -22 127 -56 48 -44 68 -98 60 -159 -4 -34 -42
-96 -58 -97 -4 -1 -10 20 -14 47 -8 55 -37 123 -60 142 -26 22 -225 117 -225
108 0 -10 57 -46 135 -86 33 -16 68 -39 78 -50 19 -21 46 -146 34 -158 -4 -4
-46 8 -94 26 -145 55 -158 63 -172 109 -15 51 -60 104 -117 137 -66 39 -77 23
-13 -18 43 -27 60 -46 73 -78 9 -23 15 -44 13 -46 -5 -5 -122 48 -312 141
-129 64 -315 177 -315 193 0 19 315 141 366 142 18 0 44 -10 60 -22z m-748
-148 c34 -22 62 -42 62 -45 0 -4 -30 -20 -67 -36 -38 -17 -101 -47 -142 -66
-185 -88 -281 -128 -281 -115 0 3 18 24 39 47 22 22 52 62 68 88 23 40 46 60
123 108 52 32 104 58 116 59 11 0 49 -18 82 -40z m3340 -204 c-31 -95 -33
-110 -33 -239 0 -75 -4 -137 -9 -137 -4 0 -21 -11 -37 -24 -51 -43 -175 -83
-344 -111 -256 -42 -346 -69 -500 -150 l-100 -53 -200 -5 c-141 -4 -233 -11
-310 -26 -286 -54 -703 -91 -1015 -91 -364 1 -622 30 -1060 122 -333 69 -382
77 -485 78 l-100 1 110 53 c61 29 157 80 215 113 121 70 833 433 849 433 10 0
245 -191 541 -440 233 -196 308 -243 412 -259 66 -11 99 -1 206 61 48 28 159
85 247 128 148 72 236 110 605 265 229 96 504 252 600 342 32 29 62 53 67 53
6 0 25 -8 44 -17 78 -39 190 -24 281 37 l43 29 3 -31 c2 -17 -11 -76 -30 -132z
m37 -687 c-9 -35 -18 -80 -21 -99 -4 -33 -40 -139 -69 -205 -7 -16 -17 -52
-21 -80 -10 -68 -37 -117 -76 -137 -67 -35 -244 -100 -393 -143 -165 -49 -180
-53 -240 -75 -33 -12 -73 -28 -90 -35 -16 -7 -91 -39 -165 -70 -74 -32 -169
-73 -210 -92 -41 -20 -104 -48 -140 -63 -36 -15 -90 -44 -120 -64 -150 -99
-238 -113 -670 -100 -446 13 -1055 -8 -1385 -48 -82 -10 -97 -9 -170 11 -131
35 -485 185 -561 237 -78 53 -424 425 -453 487 -13 29 -37 78 -53 111 -34 70
-35 102 -6 133 28 30 33 29 35 -9 4 -54 23 -87 69 -118 23 -17 45 -30 47 -30
2 0 74 -33 158 -74 185 -89 260 -121 445 -191 610 -232 970 -335 1169 -335
106 0 287 34 575 107 529 134 762 190 910 218 47 9 135 27 195 40 61 13 138
29 173 35 81 14 132 41 206 107 142 127 447 351 525 384 24 11 66 27 93 35 37
13 52 24 63 49 18 36 75 72 144 90 56 14 57 11 36 -76z m-315 -629 c0 -5 -5
-10 -11 -10 -5 0 -7 5 -4 10 3 6 8 10 11 10 2 0 4 -4 4 -10z m-4400 -59 c-15
-30 -30 -35 -17 -6 7 14 16 25 20 25 4 0 3 -9 -3 -19z m4160 -21 c0 -5 -2 -10
-4 -10 -3 0 -8 5 -11 10 -3 6 -1 10 4 10 6 0 11 -4 11 -10z m-4216 -33 c-2 -7
4 -22 16 -32 11 -10 20 -29 20 -42 0 -13 4 -22 8 -19 12 7 25 -4 57 -49 16
-22 42 -54 59 -71 17 -17 42 -45 56 -64 14 -18 31 -37 38 -44 7 -6 25 -24 40
-39 98 -102 141 -141 157 -145 6 -1 34 -23 64 -50 66 -57 91 -75 91 -66 0 4 8
0 18 -8 9 -9 27 -19 40 -22 12 -4 22 -12 22 -17 0 -5 9 -9 20 -9 11 0 20 -4
20 -9 0 -5 15 -12 33 -16 17 -4 43 -14 57 -23 24 -15 164 -41 228 -42 18 0 39
-6 46 -12 18 -20 106 -148 106 -156 0 -4 16 -21 35 -37 19 -17 35 -33 35 -38
0 -7 34 -49 71 -87 21 -22 49 -79 49 -99 0 -9 14 -30 30 -48 24 -26 30 -41 30
-77 0 -39 -3 -46 -20 -46 -13 0 -20 -7 -20 -20 0 -24 -1 -24 -85 -5 -36 9 -69
14 -73 11 -4 -2 -66 16 -137 40 -72 25 -141 48 -155 51 -13 3 -33 14 -43 24
-11 10 -34 21 -51 25 -17 3 -40 14 -51 23 -11 10 -38 28 -60 42 -52 31 -57 34
-121 97 -41 40 -54 49 -54 34 0 -10 10 -28 23 -40 12 -11 31 -38 42 -59 11
-21 27 -45 37 -54 9 -8 33 -40 53 -70 20 -30 44 -58 53 -63 10 -6 44 -36 76
-68 33 -32 65 -58 71 -58 6 0 18 -9 28 -20 9 -11 24 -20 34 -20 43 0 -12 -23
-121 -50 -141 -36 -220 -38 -331 -9 -44 12 -97 22 -118 23 -21 1 -42 7 -46 14
-4 7 -25 16 -46 19 -21 3 -46 13 -55 22 -35 33 -61 51 -73 51 -14 1 -77 56
-77 67 0 5 -12 15 -28 24 -15 8 -36 33 -47 55 -11 21 -23 41 -27 42 -13 6 -9
44 12 112 18 59 53 264 52 300 -1 8 -6 71 -12 140 -6 69 -8 135 -5 147 3 12 1
23 -4 25 -12 4 -21 88 -9 88 4 0 8 -9 8 -20 0 -11 3 -20 8 -20 8 0 32 -48 32
-64 0 -6 9 -22 19 -36 14 -18 17 -29 10 -42 -7 -13 -6 -16 3 -13 8 3 22 -17
38 -55 14 -33 35 -73 47 -88 l22 -27 -5 25 c-3 14 -9 34 -14 45 -34 81 -58
160 -53 169 3 6 2 8 -2 3 -8 -7 -48 75 -87 183 -23 64 -38 99 -83 195 -48 102
-50 110 -25 150 22 35 34 46 24 22z m40 -2 c-4 -8 -11 -15 -16 -15 -6 0 -5 6
2 15 7 8 14 15 16 15 2 0 1 -7 -2 -15z m76 -29 c0 -3 -4 -8 -10 -11 -5 -3 -10
-1 -10 4 0 6 5 11 10 11 6 0 10 -2 10 -4z m3707 -72 c-3 -3 -12 -4 -19 -1 -8
3 -5 6 6 6 11 1 17 -2 13 -5z m-3322 -202 c-3 -3 -11 0 -18 7 -9 10 -8 11 6 5
10 -3 15 -9 12 -12z m2919 3 c-4 -8 -8 -15 -10 -15 -2 0 -4 7 -4 15 0 8 4 15
10 15 5 0 7 -7 4 -15z m136 -9 c0 -2 -7 -7 -16 -10 -8 -3 -12 -2 -9 4 6 10 25
14 25 6z m-22 -51 c-3 -3 -9 2 -12 12 -6 14 -5 15 5 6 7 -7 10 -15 7 -18z m32
1 c0 -2 -8 -10 -17 -17 -16 -13 -17 -12 -4 4 13 16 21 21 21 13z m-380 -56 c0
-5 -7 -7 -15 -4 -8 4 -15 8 -15 10 0 2 7 4 15 4 8 0 15 -4 15 -10z m-1067 -37
c-7 -2 -19 -2 -25 0 -7 3 -2 5 12 5 14 0 19 -2 13 -5z m927 -37 c0 -2 -9 -6
-20 -9 -11 -3 -18 -1 -14 4 5 9 34 13 34 5z m554 -46 c-5 -5 -10 3 -11 18 -1
22 0 24 9 8 6 -10 6 -22 2 -26z m-1104 -74 c487 -5 624 -14 646 -42 6 -8 18
-14 26 -14 8 0 45 -31 84 -70 38 -38 74 -70 79 -70 13 -1 105 -88 105 -101 0
-5 9 -9 20 -9 11 0 26 -12 34 -29 9 -16 22 -31 30 -34 53 -21 90 -388 50 -506
-17 -52 -63 -154 -73 -161 -14 -11 -59 -76 -65 -96 -3 -11 -18 -27 -33 -35
-35 -18 -73 -53 -73 -68 0 -6 -4 -11 -9 -11 -18 0 -92 -55 -80 -59 6 -2 41 10
78 26 36 17 102 45 146 63 198 80 264 114 306 162 9 10 21 18 26 18 5 0 20 11
33 25 13 14 27 25 31 25 4 0 10 -19 14 -42 3 -24 12 -59 20 -78 7 -19 23 -80
35 -135 12 -55 28 -130 36 -166 21 -98 18 -140 -12 -184 -14 -21 -30 -49 -35
-62 -5 -13 -13 -23 -19 -23 -5 0 -10 -9 -10 -20 0 -11 -6 -20 -14 -20 -8 0
-27 -11 -43 -24 -15 -13 -45 -29 -65 -37 -21 -7 -38 -19 -38 -26 0 -7 -6 -10
-14 -7 -8 3 -26 -2 -40 -11 -23 -16 -55 -17 -328 -11 -368 7 -540 31 -660 92
-14 8 -38 14 -52 14 -14 0 -26 5 -26 10 0 6 -4 10 -10 10 -29 0 -157 122 -165
157 -2 10 -15 50 -29 88 -14 39 -26 81 -26 95 0 29 -21 92 -37 111 -6 8 -14
25 -17 39 -19 66 -28 81 -50 75 -12 -4 -16 -3 -10 2 6 4 14 20 18 35 5 23 4
26 -11 21 -15 -6 -16 -4 -5 9 8 10 9 19 3 22 -5 4 -22 32 -38 64 -15 31 -32
60 -37 64 -5 3 -9 26 -9 50 1 42 0 43 -29 43 -17 0 -33 6 -36 13 -3 12 0 12
19 2 l24 -13 -22 25 c-13 13 -23 30 -23 36 0 21 -18 13 -23 -10 -3 -17 -5 -15
-6 8 0 17 -8 37 -16 44 -8 7 -15 20 -15 30 0 24 -11 32 -26 19 -10 -8 -13 -6
-11 8 2 27 -45 87 -55 71 -5 -8 -8 -2 -8 17 -1 17 -8 48 -16 70 -8 22 -19 58
-24 80 -5 22 -21 80 -35 129 -14 49 -24 95 -21 102 3 8 0 13 -6 11 -5 -1 -12
5 -13 13 -1 8 -14 39 -29 69 -31 66 -31 64 -5 56 15 -5 20 -3 17 6 -3 8 -14
15 -26 17 -12 2 -22 8 -22 14 0 5 -7 8 -15 5 -13 -6 -29 5 -21 14 3 2 64 3
138 2 73 -1 351 -5 618 -7z m1037 -8 c-3 -8 -6 -5 -6 6 -1 11 2 17 5 13 3 -3
4 -12 1 -19z m-1801 -58 c20 -18 65 -106 57 -114 -4 -3 -2 -6 4 -6 6 0 13 -10
16 -22 3 -13 12 -47 21 -75 42 -138 48 -160 52 -186 2 -15 8 -36 14 -47 5 -10
10 -29 9 -42 0 -20 -1 -20 -8 -5 -4 10 -10 17 -15 15 -4 -2 -18 15 -30 37 -11
22 -22 42 -24 44 -1 3 -9 -4 -17 -15 -9 -12 -14 -14 -15 -6 0 7 -7 20 -15 29
-9 8 -14 20 -12 27 2 6 -14 27 -35 46 -21 20 -38 39 -38 43 0 4 -8 15 -17 26
-32 34 -54 66 -70 104 -9 20 -20 37 -25 37 -4 0 -8 6 -8 13 0 6 -6 23 -13 37
-15 28 -9 55 11 55 6 0 11 4 10 10 -7 26 115 21 148 -5z m1848 14 c3 -8 2 -12
-4 -9 -6 3 -10 10 -10 16 0 14 7 11 14 -7z m63 -16 c-3 -8 -6 -5 -6 6 -1 11 2
17 5 13 3 -3 4 -12 1 -19z m-2310 -50 c-3 -8 -6 -5 -6 6 -1 11 2 17 5 13 3 -3
4 -12 1 -19z m3430 -60 c-3 -8 -6 -5 -6 6 -1 11 2 17 5 13 3 -3 4 -12 1 -19z
m-20 -65 c-3 -10 -5 -4 -5 12 0 17 2 24 5 18 2 -7 2 -21 0 -30z m-477 -117 c0
-2 -7 -6 -15 -10 -8 -3 -15 -1 -15 4 0 6 7 10 15 10 8 0 15 -2 15 -4z m-4321
-243 c-1 -38 -1 -38 -9 -8 -6 24 -8 26 -9 8 0 -13 -5 -23 -11 -23 -5 0 -10 -4
-10 -10 0 -5 5 -9 12 -7 12 2 13 -59 2 -115 -10 -49 17 -140 55 -190 27 -35
53 -55 108 -80 44 -20 74 -40 77 -52 3 -13 10 -17 22 -12 10 4 24 -2 39 -18
12 -13 32 -27 43 -31 12 -3 22 -11 22 -16 0 -5 18 -17 40 -26 22 -10 40 -21
40 -25 0 -5 7 -8 15 -8 13 0 65 -20 107 -41 10 -5 24 -9 32 -9 8 0 21 -6 28
-13 7 -8 38 -17 68 -20 30 -4 75 -13 100 -21 48 -16 185 -45 210 -45 8 0 31
-3 50 -7 19 -4 47 -7 62 -7 41 0 42 -23 3 -54 -19 -16 -35 -36 -35 -47 0 -12
-5 -16 -16 -12 -9 3 -29 -5 -48 -19 -18 -14 -36 -25 -39 -25 -4 0 -27 -13 -52
-29 -25 -16 -71 -39 -103 -52 -31 -12 -59 -26 -62 -29 -5 -7 -121 -37 -179
-45 -19 -3 -40 -10 -46 -15 -6 -5 -84 -12 -172 -14 -157 -5 -161 -4 -209 21
-147 77 -224 122 -224 132 0 4 -6 8 -12 8 -7 0 -62 32 -121 72 -60 40 -119 77
-132 83 -20 9 -23 19 -27 87 -6 80 -9 103 -19 111 -3 3 -17 27 -32 54 -38 68
-35 95 13 146 22 23 40 44 40 46 0 5 37 50 78 94 54 57 295 300 299 300 1 0 2
-17 2 -37z m4718 -75 c-3 -8 -6 -5 -6 6 -1 11 2 17 5 13 3 -3 4 -12 1 -19z
m-4695 -128 c2 -14 9 -35 16 -47 7 -12 12 -28 12 -36 0 -8 11 -25 25 -38 13
-13 25 -30 25 -38 0 -23 -39 18 -61 64 -19 37 -39 136 -26 125 3 -3 7 -17 9
-30z m2038 -54 c0 -3 -4 -8 -10 -11 -5 -3 -10 -1 -10 4 0 6 5 11 10 11 6 0 10
-2 10 -4z m2291 -69 c-10 -9 -11 -8 -5 6 3 10 9 15 12 12 3 -3 0 -11 -7 -18z
m184 -127 c-3 -5 -11 -10 -16 -10 -6 0 -7 5 -4 10 3 6 11 10 16 10 6 0 7 -4 4
-10z m23 -70 c7 -11 11 -20 9 -20 -2 0 -12 9 -22 20 -10 11 -14 20 -9 20 5 0
15 -9 22 -20z m-8 -30 c0 -5 -5 -10 -11 -10 -5 0 -7 5 -4 10 3 6 8 10 11 10 2
0 4 -4 4 -10z m-3963 -46 c-3 -3 -12 -4 -19 -1 -8 3 -5 6 6 6 11 1 17 -2 13
-5z m4098 -4 c3 -5 1 -10 -4 -10 -6 0 -11 5 -11 10 0 6 2 10 4 10 3 0 8 -4 11
-10z m-4010 -18 c-3 -3 -11 0 -18 7 -9 10 -8 11 6 5 10 -3 15 -9 12 -12z
m3950 -32 c3 -5 1 -10 -4 -10 -6 0 -11 5 -11 10 0 6 2 10 4 10 3 0 8 -4 11
-10z m-2357 -55 c-3 -3 -9 2 -12 12 -6 14 -5 15 5 6 7 -7 10 -15 7 -18z m2472
3 c0 -5 -9 -4 -20 2 -11 6 -20 12 -20 14 0 2 9 2 20 -1 11 -3 20 -9 20 -15z
m-3795 2 c3 -5 1 -10 -4 -10 -6 0 -11 5 -11 10 0 6 2 10 4 10 3 0 8 -4 11 -10z
m1469 -16 c9 -24 7 -27 -9 -10 -17 17 -19 26 -6 26 5 0 12 -7 15 -16z m-434
-69 c7 -8 8 -15 2 -15 -5 0 -15 7 -22 15 -7 8 -8 15 -2 15 5 0 15 -7 22 -15z
m417 -87 c-3 -8 -6 -5 -6 6 -1 11 2 17 5 13 3 -3 4 -12 1 -19z m-409 -38 c35
-35 28 -41 -8 -7 -14 12 -28 21 -33 19 -5 -1 -6 2 -2 8 9 14 10 14 43 -20z
m419 -12 c-3 -8 -6 -5 -6 6 -1 11 2 17 5 13 3 -3 4 -12 1 -19z m-447 -8 c0 -5
-4 -10 -10 -10 -5 0 -10 5 -10 10 0 6 5 10 10 10 6 0 10 -4 10 -10z m417 -37
c-3 -10 -5 -4 -5 12 0 17 2 24 5 18 2 -7 2 -21 0 -30z m2743 -38 c0 -8 -2 -15
-4 -15 -2 0 -6 7 -10 15 -3 8 -1 15 4 15 6 0 10 -7 10 -15z m-4765 -155 c3 -5
2 -10 -4 -10 -5 0 -13 5 -16 10 -3 6 -2 10 4 10 5 0 13 -4 16 -10z m1125 -284
c0 -3 -4 -8 -10 -11 -5 -3 -10 -1 -10 4 0 6 5 11 10 11 6 0 10 -2 10 -4z
m-733 -98 c-3 -8 -6 -5 -6 6 -1 11 2 17 5 13 3 -3 4 -12 1 -19z"/>
<path d="M3170 7884 c0 -24 44 -137 48 -121 2 9 -2 34 -9 55 -12 39 -39 84
-39 66z"/>
<path d="M1954 7752 c-53 -19 -173 -86 -214 -121 -18 -15 -3 -11 53 15 44 19
81 33 84 31 2 -3 -3 -41 -12 -85 -20 -100 -21 -257 -1 -353 22 -102 81 -220
160 -318 l68 -84 -21 -26 c-46 -56 -71 -128 -71 -202 0 -122 47 -201 148 -248
113 -52 454 -101 701 -101 l139 0 24 -29 c12 -15 29 -37 36 -47 11 -16 12 -12
8 32 l-5 51 59 17 c62 19 121 54 70 42 -127 -30 -343 -30 -625 0 -294 32 -423
71 -470 142 -76 118 -44 283 68 348 58 34 77 39 157 39 84 0 87 -1 215 -62
130 -62 244 -104 399 -145 67 -18 109 -22 243 -22 123 -1 165 2 175 13 11 11
3 12 -48 6 -58 -6 -215 9 -242 24 -8 5 1 15 30 31 82 45 183 119 238 175 30
30 57 55 61 55 3 0 23 -27 43 -60 103 -167 283 -298 511 -373 175 -58 235 -64
376 -37 63 11 152 28 199 37 107 20 131 29 225 93 250 169 377 415 392 760 3
69 10 131 16 138 18 23 131 -14 214 -70 23 -15 44 -28 48 -28 32 0 -137 122
-228 166 -91 42 -203 72 -332 85 -155 17 -327 -1 -665 -66 -324 -63 -627 -100
-861 -105 -27 0 -11 167 22 234 23 48 23 52 3 36 -30 -25 -64 -97 -74 -156
-19 -106 -18 -104 -50 -104 -45 0 -317 48 -400 71 -41 12 -163 54 -270 94
-281 104 -358 125 -460 125 -54 -1 -103 -7 -136 -18z m391 -73 l130 -44 -3
-35 c-2 -19 -4 -93 -5 -165 -2 -150 8 -187 79 -296 123 -187 341 -258 519
-169 90 44 171 113 199 167 16 31 26 43 29 33 3 -8 17 -50 31 -93 l27 -78 -20
-27 c-26 -35 -136 -141 -184 -176 -65 -47 -164 -88 -215 -89 -61 -1 -214 50
-362 120 -63 30 -140 60 -170 67 -67 16 -150 12 -207 -8 -41 -15 -44 -14 -72
10 -42 35 -118 138 -152 206 -48 96 -69 189 -69 313 0 154 28 248 87 295 26
20 36 22 128 18 85 -4 120 -11 230 -49z m251 -95 l74 -27 -6 -48 c-9 -64 12
-175 42 -226 56 -97 172 -156 261 -133 72 18 116 45 168 102 48 53 95 137 95
171 0 10 8 17 20 17 19 0 20 -5 16 -97 -8 -172 -58 -252 -209 -335 -57 -30
-69 -33 -152 -33 -77 0 -98 4 -148 27 -31 15 -82 50 -112 79 -115 109 -160
223 -153 397 3 97 10 132 25 132 2 0 38 -12 79 -26z m2261 -8 c15 -15 15 -173
-1 -255 -45 -241 -216 -400 -473 -440 -108 -17 -241 17 -329 84 -38 29 -99
119 -120 177 -19 55 -38 237 -30 282 8 44 32 58 107 66 l56 5 5 -85 c9 -140
76 -257 181 -312 62 -33 183 -32 252 2 134 65 228 238 225 409 -1 36 -1 70 -1
75 1 10 117 3 128 -8z m138 -16 c63 -14 74 -30 81 -123 14 -155 -30 -378 -98
-509 -102 -197 -315 -365 -525 -414 -108 -25 -350 -15 -468 20 -187 56 -369
168 -460 285 -136 174 -195 338 -195 542 l0 69 83 0 c45 1 128 5 184 10 55 5
135 12 176 16 l75 7 0 -80 c0 -92 30 -223 69 -303 87 -179 300 -278 508 -236
184 37 346 156 418 306 45 95 68 209 67 325 -1 49 -1 94 -1 98 1 5 9 6 19 4 9
-3 40 -10 67 -17z"/>
<path d="M1599 7662 c-13 -11 -39 -27 -57 -36 -51 -26 -110 -84 -117 -115 -15
-71 43 -122 140 -120 59 1 59 1 25 12 -19 6 -53 21 -75 33 -32 17 -41 28 -43
53 -4 34 20 62 118 142 45 37 54 65 9 31z"/>
<path d="M5451 7570 c-1 -14 22 -80 49 -147 28 -67 50 -130 50 -141 0 -26 -67
-82 -89 -74 -13 4 -12 1 3 -16 47 -54 127 3 126 90 -1 18 -16 62 -35 98 -30
56 -61 120 -95 195 -8 18 -9 18 -9 -5z"/>
<path d="M3615 5950 c-64 -9 -233 -55 -297 -81 -139 -55 -294 -88 -411 -89
-77 0 -103 5 -210 41 -147 49 -187 48 -243 -8 -40 -40 -39 -56 2 -24 15 11 45
26 67 32 34 9 47 7 91 -12 l51 -23 2 -160 c2 -182 15 -250 53 -277 37 -27 157
-42 301 -37 170 5 179 11 179 116 0 73 -13 225 -25 303 -6 35 -5 36 35 48 23
7 43 11 45 9 1 -2 7 -93 13 -203 6 -110 13 -208 17 -217 9 -24 29 -26 125 -11
156 23 270 54 285 77 16 27 34 144 49 321 l11 140 30 3 c82 10 231 -50 380
-152 101 -70 151 -115 224 -204 24 -29 46 -51 48 -48 14 14 -52 110 -127 185
-223 226 -438 309 -695 271z m89 -102 c-30 -376 -31 -386 -63 -403 -33 -17
-308 -71 -317 -62 -4 3 -12 68 -19 144 -7 76 -16 168 -20 204 l-7 66 38 15
c22 9 91 30 154 48 63 17 120 33 125 35 6 2 33 4 62 4 l52 1 -5 -52z m-936
-98 c76 -24 196 -26 292 -5 36 7 68 11 71 7 8 -8 29 -253 29 -329 l0 -52 -57
-12 c-67 -14 -289 -6 -340 11 -28 10 -33 18 -42 63 -5 29 -13 97 -16 152 -3
55 -8 119 -12 143 -3 23 -1 42 3 42 5 0 38 -9 72 -20z"/>
<path d="M6152 4646 c18 -33 24 -39 26 -24 4 21 -23 68 -38 68 -6 0 0 -20 12
-44z"/>
<path d="M2005 2313 c-41 -10 -41 -26 0 -19 22 3 50 6 63 6 12 0 22 5 22 10 0
10 -48 12 -85 3z"/>
<path d="M3570 2161 c0 -5 5 -13 10 -16 6 -3 10 -2 10 4 0 5 -4 13 -10 16 -5
3 -10 2 -10 -4z"/>
<path d="M3651 1774 c0 -11 3 -14 6 -6 3 7 2 16 -1 19 -3 4 -6 -2 -5 -13z"/>
<path d="M4851 872 c-30 -14 -49 -28 -43 -30 10 -3 66 23 102 47 28 19 -4 10
-59 -17z"/>
</g>
</svg>
